<svg width="128" height="128" viewBox="0 0 128 128" xmlns="http://www.w3.org/2000/svg">
  <defs>
    <linearGradient id="bgGrad" x1="0" y1="0" x2="1" y2="1">
      <stop offset="0%" stop-color="#1c3320"/>
      <stop offset="100%" stop-color="#0a1a0c"/>
    </linearGradient>
    <linearGradient id="leafFill" x1="0" y1="0" x2="1" y2="1">
      <stop offset="0%" stop-color="#a3e635"/>
      <stop offset="100%" stop-color="#4caf50"/>
    </linearGradient>
    <filter id="shadow" x="-30%" y="-30%" width="160%" height="160%">
      <feDropShadow dx="0" dy="3" stdDeviation="3" flood-color="#000" flood-opacity="0.35"/>
    </filter>
  </defs>

  <rect x="4" y="4" width="120" height="120" rx="28" fill="url(#bgGrad)" stroke="#2e4a34" stroke-width="2"/>

  <g filter="url(#shadow)">
    <path d="M64 100 C40 94 28 74 30 50 C32 34 44 24 64 22
             C84 24 96 34 98 50 C100 74 88 94 64 100 Z" fill="url(#leafFill)"/>
    <path d="M64 96 C64 70 64 46 64 26" stroke="#2e6b32" stroke-width="4" stroke-linecap="round" fill="none"/>
    <path d="M64 40 C56 40 50 46 46 52" stroke="#2e6b32" stroke-width="3" stroke-linecap="round" fill="none"/>
    <path d="M64 40 C72 40 78 46 82 52" stroke="#2e6b32" stroke-width="3" stroke-linecap="round" fill="none"/>
    <path d="M64 58 C56 58 50 64 46 70" stroke="#2e6b32" stroke-width="3" stroke-linecap="round" fill="none"/>
    <path d="M64 58 C72 58 78 64 82 70" stroke="#2e6b32" stroke-width="3" stroke-linecap="round" fill="none"/>
  </g>
</svg>
