<svg width="128" height="128" viewBox="0 0 128 128" xmlns="http://www.w3.org/2000/svg">
  <defs>
    <linearGradient id="carrotBody" x1="0" y1="0" x2="0" y2="1">
      <stop offset="0%" stop-color="#ffb366"/>
      <stop offset="55%" stop-color="#f5822b"/>
      <stop offset="100%" stop-color="#d1621a"/>
    </linearGradient>
    <linearGradient id="carrotTop" x1="0" y1="0" x2="1" y2="1">
      <stop offset="0%" stop-color="#8fe08f"/>
      <stop offset="100%" stop-color="#3f9142"/>
    </linearGradient>
    <filter id="shadow" x="-30%" y="-30%" width="160%" height="160%">
      <feDropShadow dx="0" dy="4" stdDeviation="4" flood-color="#000" flood-opacity="0.28"/>
    </filter>
  </defs>

  <g filter="url(#shadow)">
    <path d="M50 40 L78 40 L67 108 C66 116 62 116 61 108 Z" fill="url(#carrotBody)"/>
    <g stroke="#c0570f" stroke-width="2" opacity="0.5" stroke-linecap="round">
      <line x1="55" y1="54" x2="60" y2="54"/>
      <line x1="58" y1="66" x2="64" y2="66"/>
      <line x1="60" y1="78" x2="65" y2="78"/>
      <line x1="61" y1="90" x2="65" y2="90"/>
    </g>

    <g fill="url(#carrotTop)">
      <path d="M64 42 C60 24 48 16 36 18 C46 26 52 34 58 44 Z"/>
      <path d="M64 42 C68 22 82 14 96 18 C84 26 76 34 70 44 Z"/>
      <path d="M64 42 C64 20 64 12 64 6 C58 16 58 32 62 44 Z"/>
    </g>
  </g>
</svg>
