<svg width="64" height="64" viewBox="0 0 64 64" xmlns="http://www.w3.org/2000/svg">
  <g fill="#eaf4ea">
    <path d="M32 4 L36 4 L37.5 12 C40 12.7 42.3 13.8 44.3 15.2 L51.5 11 L54.5 14 L50.3 21.2
             C51.7 23.2 52.8 25.5 53.5 28 L61.5 29.5 L61.5 33.5 L53.5 35
             C52.8 37.5 51.7 39.8 50.3 41.8 L54.5 49 L51.5 52 L44.3 47.8
             C42.3 49.2 40 50.3 37.5 51 L36 59 L32 59 L30.5 51
             C28 50.3 25.7 49.2 23.7 47.8 L16.5 52 L13.5 49 L17.7 41.8
             C16.3 39.8 15.2 37.5 14.5 35 L6.5 33.5 L6.5 29.5 L14.5 28
             C15.2 25.5 16.3 23.2 17.7 21.2 L13.5 14 L16.5 11 L23.7 15.2
             C25.7 13.8 28 12.7 30.5 12 Z"/>
  </g>
  <circle cx="32" cy="31.5" r="10" fill="#12241a"/>
</svg>
